<svg xmlns="http://www.w3.org/2000/svg" width="170" height="43" viewBox="0 0 170 43"><g transform="translate(-96.5 -929.331)"><rect width="170" height="43" rx="21.5" transform="translate(96.5 929.331)" fill="#0061ff"/><g transform="translate(122.621 939.294)"><path d="M164.152,132.313l-6.772,4.313,6.772,4.313-6.772,4.313-6.771-4.313,6.771-4.313-6.771-4.313L157.38,128Zm-6.792,14.369,6.772-4.313,6.771,4.313-6.771,4.313Zm6.792-5.744,6.771-4.313-6.771-4.313L170.924,128l6.772,4.313-6.772,4.313,6.772,4.313-6.772,4.313Z" transform="translate(-150.609 -128)" fill="#fff"/><path d="M330.893,146.761h5.482c3.507,0,6.368,2.035,6.368,6.651v.988c0,4.635-2.7,6.731-6.288,6.731h-5.562Zm3.063,2.6v9.129h2.358c1.975,0,3.325-1.31,3.325-4.192v-.746c0-2.882-1.391-4.192-3.426-4.192Zm10.419.141h2.439l.383,2.7c.463-1.854,1.653-2.8,3.809-2.8h.746v3.083H350.5c-2.5,0-3.1.866-3.1,3.325v5.32h-3.023Zm8.021,6.066v-.322c0-3.91,2.5-6.005,5.885-6.005,3.467,0,5.865,2.136,5.865,6.005v.322c0,3.829-2.358,5.865-5.865,5.865C354.533,161.433,352.4,159.4,352.4,155.568Zm8.686-.04v-.282c0-2.176-1.088-3.446-2.8-3.446-1.693,0-2.821,1.189-2.821,3.446v.282c0,2.1,1.068,3.265,2.8,3.265S361.083,157.644,361.083,155.528Zm4.655-6.026h2.539l.3,2.217a3.912,3.912,0,0,1,3.829-2.479c2.963,0,4.9,2.136,4.9,6.046v.322c0,3.829-2.156,5.824-4.9,5.824a3.772,3.772,0,0,1-3.708-2.176v5.864h-2.963Zm8.5,6.046v-.262c0-2.317-1.189-3.466-2.781-3.466-1.693,0-2.822,1.29-2.822,3.446v.222c0,2.056,1.088,3.345,2.761,3.345C373.134,158.833,374.243,157.684,374.243,155.548Zm7.517,3.466-.242,2.116H378.9V145.612h2.963v5.965a3.785,3.785,0,0,1,3.768-2.338c2.761.02,4.817,1.935,4.817,5.8v.343c0,3.87-1.935,6.046-4.9,6.046A3.811,3.811,0,0,1,381.76,159.014Zm5.643-3.628V155.1c0-2.136-1.169-3.305-2.781-3.305-1.673,0-2.822,1.35-2.822,3.345v.242c0,2.177,1.109,3.426,2.781,3.426C386.335,158.813,387.4,157.684,387.4,155.386Zm4.393.181v-.322c0-3.91,2.479-6.005,5.865-6.005,3.466,0,5.885,2.136,5.885,6.005v.322c0,3.829-2.378,5.865-5.885,5.865C393.913,161.433,391.8,159.4,391.8,155.568Zm8.686-.04v-.282c0-2.176-1.089-3.446-2.8-3.446-1.693,0-2.821,1.189-2.821,3.446v.282c0,2.1,1.068,3.265,2.8,3.265C399.415,158.792,400.483,157.644,400.483,155.528Zm7.013-.423-4.071-5.6h3.486l2.358,3.486,2.378-3.486h3.466l-4.131,5.583,4.353,6.046h-3.426l-2.68-3.849-2.6,3.849h-3.547Z" transform="translate(-298.505 -142.448)" fill="#fff"/></g></g></svg>