<svg xmlns="http://www.w3.org/2000/svg" viewBox="0 0 121.18 100"><defs><style>.cls-1{fill:#7f8085;}.cls-2{fill:#fff;}</style></defs><title>Asset 2</title><g id="Layer_2" data-name="Layer 2"><g id="Layer_1-2" data-name="Layer 1"><path class="cls-1" d="M56.31,2.47,0,100H121.18L64.88,2.47A4.92,4.92,0,0,0,60.59,0h0A4.9,4.9,0,0,0,56.31,2.47Z"/><path class="cls-2" d="M84.25,63.94c-.4-.56-10.67-13.85-23.66-13.85S37.34,63.38,36.93,63.94a1.76,1.76,0,0,0,0,2.07c.41.61,10.67,13.9,23.66,13.9S83.85,66.62,84.25,66.06A1.8,1.8,0,0,0,84.25,63.94ZM60.59,76.42c-9.3,0-17.44-8.44-20-11.42,2.58-3,10.67-11.42,20-11.42S78,62,80.61,65C78,68,69.94,76.42,60.59,76.42Z"/><path class="cls-2" d="M60.59,57.11A7.89,7.89,0,1,0,68.48,65,7.89,7.89,0,0,0,60.59,57.11Zm0,12.29A4.4,4.4,0,1,1,65,65,4.41,4.41,0,0,1,60.59,69.4Z"/></g></g></svg>