<svg xmlns="http://www.w3.org/2000/svg" viewBox="0 0 344.89 100"><defs><style>.cls-1{fill:#393a3f;}.cls-2{fill:#fff;}</style></defs><title>Asset 4</title><g id="Layer_2" data-name="Layer 2"><g id="Layer_1-2" data-name="Layer 1"><path class="cls-1" d="M344.22,92.58,290.77,0H54.12L.67,92.58A5,5,0,0,0,5,100h335A4.94,4.94,0,0,0,344.22,92.58Z"/><path class="cls-2" d="M191.55,45.38a18.67,18.67,0,0,0-17.17-16.81,19.24,19.24,0,0,0-2.63,0A18.57,18.57,0,0,0,160.44,60.7,11.14,11.14,0,0,1,164,68.83v7.22a4.57,4.57,0,0,0,4,4.52,5.35,5.35,0,0,0,10.07,0,4.57,4.57,0,0,0,4-4.52V68.83a11.13,11.13,0,0,1,3.58-8.13A18.48,18.48,0,0,0,191.55,45.38ZM179.06,70v1.15h-12V70Zm-9.5-19h-1.49a1.49,1.49,0,1,1,1.49-1.49Zm2.27,2.27h2.46V67.7h-2.46Zm-4.77,21.3V73.39h12v1.14Zm6,6.55a2.47,2.47,0,0,1-2-1.19h4A2.51,2.51,0,0,1,173.06,81.08Zm4.48-3.51h-.68a1.86,1.86,0,0,0-.34,0h-6.91a2,2,0,0,0-.35,0h-.68a1.52,1.52,0,0,1-1.31-.76h11.58A1.52,1.52,0,0,1,177.54,77.57Zm6.08-19.09a14.22,14.22,0,0,0-4.5,9.22h-2.56V53.23h1.49a3.76,3.76,0,1,0-3.76-3.76V51h-2.45V49.47a3.76,3.76,0,1,0-3.76,3.76h1.48V67.7H167a14.17,14.17,0,0,0-4.5-9.22A15.53,15.53,0,0,1,172,31.6c.37,0,.74,0,1.1,0s.74,0,1.11,0a15.53,15.53,0,0,1,9.45,26.88ZM176.56,51V49.47A1.49,1.49,0,1,1,178.05,51Z"/><path class="cls-2" d="M173.06,23.56a1.21,1.21,0,0,0,1.2-1.21V17.09a1.2,1.2,0,0,0-2.4,0v5.27A1.2,1.2,0,0,0,173.06,23.56Z"/><path class="cls-2" d="M191.5,22a1.2,1.2,0,0,0-1.68.27l-3.1,4.26A1.22,1.22,0,0,0,187,28.2a1.2,1.2,0,0,0,1.68-.27l3.1-4.26A1.21,1.21,0,0,0,191.5,22Z"/><path class="cls-2" d="M197.05,40.91l5-1.63a1.2,1.2,0,1,0-.75-2.28l-5,1.62a1.2,1.2,0,1,0,.75,2.29Z"/><path class="cls-2" d="M202,55.67l-5-1.62a1.2,1.2,0,1,0-.74,2.28l5,1.63a1.2,1.2,0,0,0,.74-2.29Z"/><path class="cls-2" d="M188.39,66.9a1.2,1.2,0,1,0-1.95,1.41l3.1,4.26a1.2,1.2,0,1,0,1.94-1.41Z"/><path class="cls-2" d="M158.78,66.43a1.21,1.21,0,0,0-1.68.26L154,71A1.2,1.2,0,0,0,156,72.37l3.1-4.27A1.19,1.19,0,0,0,158.78,66.43Z"/><path class="cls-2" d="M150.24,54.48a1.21,1.21,0,0,0-1.51-.77l-5,1.63a1.2,1.2,0,0,0,.74,2.29l5-1.63a1.2,1.2,0,0,0,.77-1.52Z"/><path class="cls-2" d="M149.58,38.29l-5-1.63a1.2,1.2,0,1,0-.74,2.29l5,1.63a1.2,1.2,0,0,0,.74-2.29Z"/><path class="cls-2" d="M157.39,27.73a1.2,1.2,0,0,0,1.94-1.42l-3.09-4.26a1.22,1.22,0,0,0-1.68-.27,1.2,1.2,0,0,0-.27,1.68Z"/></g></g></svg>