<svg xmlns="http://www.w3.org/2000/svg" viewBox="0 0 236.65 100"><defs><style>.cls-1{fill:#555659;}.cls-2{fill:#fff;}</style></defs><title>Asset 3</title><g id="Layer_2" data-name="Layer 2"><g id="Layer_1-2" data-name="Layer 1"><polygon class="cls-1" points="0 100 236.66 100 178.92 0 57.73 0 0 100"/><path class="cls-2" d="M138.48,74.75H100v-46h4.29v1.64a1.58,1.58,0,1,0,3.16,0V28.72h5.74v1.64a1.58,1.58,0,0,0,3.16,0V28.72h5.75v1.64a1.58,1.58,0,1,0,3.15,0V28.72H131v1.64a1.58,1.58,0,1,0,3.16,0V28.72h4.23V51.77l3.22-3.16V28.28a2.7,2.7,0,0,0-2.72-2.72h-4.73v-1.7a1.57,1.57,0,0,0-1.58-1.58A1.51,1.51,0,0,0,131,23.86V25.5h-5.74V23.86a1.58,1.58,0,0,0-3.16,0V25.5h-5.75V23.86a1.58,1.58,0,1,0-3.15,0V25.5h-5.75V23.86a1.57,1.57,0,0,0-1.58-1.58,1.68,1.68,0,0,0-1.7,1.58V25.5H99.46a2.73,2.73,0,0,0-2.71,2.72v47a2.73,2.73,0,0,0,2.71,2.72H139a2.7,2.7,0,0,0,2.71-2.72V68.44l-3.22,3.15Z"/><rect class="cls-2" x="134.13" y="53.4" width="17.87" height="7.58" transform="translate(1.46 117.89) rotate(-44.99)"/><path class="cls-2" d="M130.72,70.9l4.86-1.14a1.24,1.24,0,0,0,.57-.31L137.6,68l-5.37-5.36-1.45,1.45a1.29,1.29,0,0,0-.32.57l-1.13,4.86A1.17,1.17,0,0,0,130.72,70.9Z"/><path class="cls-2" d="M156.41,47.6l-3.78-3.79a1.11,1.11,0,0,0-1.58,0l-2.53,2.53,5.37,5.36,2.52-2.52A1.09,1.09,0,0,0,156.41,47.6Z"/><path class="cls-2" d="M132.86,43.43c0-3.22-7.7-5.3-23-6.25a1.47,1.47,0,0,0-1.52,1.33A1.45,1.45,0,0,0,109.69,40c9.66.63,18.69,2.21,20.2,3.29-1.32.75-6.12,1.39-9.34,1.83-8,1.07-14.21,2-14.21,5.55s5.43,4.05,10.67,4.36c2,.13,5.18.32,6.19.82-.88.89-4.92,2.09-7.2,2.72-4.92,1.39-8.52,2.4-8.52,4.92,0,3.6,8.08,4.86,14.9,5.37h.13a1.4,1.4,0,0,0,1.39-1.33A1.42,1.42,0,0,0,122.57,66c-5.56-.38-11-1.52-12.12-2.53.94-.76,4.29-1.7,6.37-2.27,5-1.45,9.35-2.65,9.35-5.49s-4.17-3.16-9-3.48c-2.21-.12-8-.5-8-1.51.64-1.33,7.9-2.28,11.75-2.84C128.13,46.91,132.86,46.27,132.86,43.43Z"/></g></g></svg>