<svg xmlns="http://www.w3.org/2000/svg" viewBox="0 0 65 65"><defs><style>.cls-1{fill:#bebebe;}.cls-2{fill:#fff;}</style></defs><title>Asset 7</title><g id="Layer_2" data-name="Layer 2"><g id="Layer_1-2" data-name="Layer 1"><circle class="cls-1" cx="32.5" cy="32.5" r="32.5"/><path class="cls-2" d="M28.68,34.57h-4c-.6,0-.83-.23-.83-.83v-4.9c0-.6.25-.84.85-.84h4v-.29c0-1.08,0-2.15,0-3.23A8.72,8.72,0,0,1,29.77,20a6.54,6.54,0,0,1,3.57-3,8.82,8.82,0,0,1,3.06-.51h3.93c.57,0,.82.25.82.82v4.56c0,.57-.24.81-.81.81-1.08,0-2.15,0-3.23,0a1.51,1.51,0,0,0-1.42.77,2.24,2.24,0,0,0-.24.91c0,1.17,0,2.35,0,3.58h4.65c.62,0,.86.24.86.85v4.88c0,.62-.22.84-.84.84H35.43v13c0,.71-.22.92-.93.92H29.55c-.65,0-.87-.22-.87-.86,0-4.23,0-8.46,0-12.7Z"/></g></g></svg>