<svg xmlns="http://www.w3.org/2000/svg" viewBox="0 0 240 240"><defs><style>.cls-1{fill:#ff2444;}.cls-2{fill:#fff;}</style></defs><title>Asset 1</title><g id="Layer_2" data-name="Layer 2"><g id="Layer_1-2" data-name="Layer 1"><circle class="cls-1" cx="120" cy="120" r="120"/><path class="cls-2" d="M55.83,96.67A11.67,11.67,0,0,0,67.5,108.33v58.34A23.34,23.34,0,0,0,90.83,190h58.34a23.34,23.34,0,0,0,23.33-23.33V108.33a11.67,11.67,0,0,0,11.67-11.66V85A11.68,11.68,0,0,0,172.5,73.33H149.17V61.67A11.67,11.67,0,0,0,137.5,50h-35A11.67,11.67,0,0,0,90.83,61.67V73.33H67.5A11.68,11.68,0,0,0,55.83,85Zm105,70a11.66,11.66,0,0,1-11.66,11.66H90.83a11.66,11.66,0,0,1-11.66-11.66V108.33h81.66Zm-58.33-105h35V73.33h-35ZM67.5,85h105V96.67H67.5Z"/><path class="cls-2" d="M96.67,166.67a5.84,5.84,0,0,0,5.83-5.84v-35a5.84,5.84,0,0,0-11.67,0v35A5.85,5.85,0,0,0,96.67,166.67Z"/><path class="cls-2" d="M120,166.67a5.84,5.84,0,0,0,5.83-5.84v-35a5.83,5.83,0,1,0-11.66,0v35A5.84,5.84,0,0,0,120,166.67Z"/><path class="cls-2" d="M143.33,166.67a5.85,5.85,0,0,0,5.84-5.84v-35a5.84,5.84,0,0,0-11.67,0v35A5.84,5.84,0,0,0,143.33,166.67Z"/></g></g></svg>