<svg xmlns="http://www.w3.org/2000/svg" viewBox="0 0 65 65"><defs><style>.cls-1{fill:#bebebe;}.cls-2{fill:#fff;}</style></defs><title>Asset 9</title><g id="Layer_2" data-name="Layer 2"><g id="Layer_1-2" data-name="Layer 1"><circle class="cls-1" cx="32.5" cy="32.5" r="32.5"/><path class="cls-2" d="M46.84,45.38H41v-.8c0-3.11,0-6.22,0-9.33a8.6,8.6,0,0,0-.19-1.75A2.84,2.84,0,0,0,38.12,31a3.19,3.19,0,0,0-3.51,1.85,6.46,6.46,0,0,0-.47,2.29c0,3.15,0,6.31,0,9.46v.75H28.48V26.27h5.6v2.29l.15.07.41-.52c2.77-3.32,8.34-3.3,10.82.05a7.36,7.36,0,0,1,1.4,4.43c0,4.17,0,8.33,0,12.49C46.87,45.17,46.85,45.25,46.84,45.38Z"/><path class="cls-2" d="M18.74,26.25h5.83V45.38H18.74Z"/><path class="cls-2" d="M21.64,16.62a3.54,3.54,0,1,1-3.52,3.51A3.57,3.57,0,0,1,21.64,16.62Z"/></g></g></svg>