<svg xmlns="http://www.w3.org/2000/svg" viewBox="0 0 96 96"><title>Asset 1</title><g id="Layer_2" data-name="Layer 2"><g id="Layer_1-2" data-name="Layer 1"><path d="M16,96H80A16,16,0,0,0,96,80V16A16,16,0,0,0,80,0H16A16,16,0,0,0,0,16V80A16,16,0,0,0,16,96Zm64-8H16a8,8,0,0,1-8-8V69.66l20-20L49.17,70.83a4,4,0,0,0,5.66,0h0L68,57.66l20,20V80A8,8,0,0,1,80,88ZM16,8H80a8,8,0,0,1,8,8V66.34L70.83,49.17a4,4,0,0,0-5.66,0h0L52,62.34,30.83,41.17a4,4,0,0,0-5.66,0h0L8,58.34V16A8,8,0,0,1,16,8Z"/><path d="M54,44A14,14,0,1,0,40,30,14,14,0,0,0,54,44Zm0-20a6,6,0,1,1-6,6A6,6,0,0,1,54,24Z"/></g></g></svg>