<svg xmlns="http://www.w3.org/2000/svg" viewBox="0 0 155.76 253.4"><defs><style>.cls-1{fill:#bebebe;}</style></defs><title>Asset 4</title><g id="Layer_2" data-name="Layer 2"><g id="Layer_1-2" data-name="Layer 1"><g id="Rigkph"><path class="cls-1" d="M29.13,253.38a5.77,5.77,0,0,1-4.42-1.89c-7.54-7.55-15.11-15.07-22.62-22.64-3-3-2.76-6,.56-9.31l90-90c2.81-2.81,2.81-2.81.08-5.54Q47.81,79.11,2.9,34.21c-3.85-3.85-3.85-6.54,0-10.38Q13.48,13.23,24.1,2.62c3.51-3.5,6.36-3.5,9.87,0l119,119c3.74,3.74,3.76,6.56.09,10.23l-119,119C32.61,252.24,31.14,253.55,29.13,253.38Z"/></g></g></g></svg>