<svg xmlns="http://www.w3.org/2000/svg" viewBox="0 0 240 240"><defs><style>.cls-1{fill:#5f5f5f;}.cls-2{fill:#fff;}</style></defs><title>Asset 3</title><g id="Layer_2" data-name="Layer 2"><g id="Layer_1-2" data-name="Layer 1"><circle class="cls-1" cx="120" cy="120" r="120"/><path class="cls-2" d="M157.29,60a22.49,22.49,0,0,0-16.07,6.64L71.43,136.46a5.09,5.09,0,0,0-1.25,2.17l-10,35a5,5,0,0,0,3.43,6.18A5.19,5.19,0,0,0,65,180a4.87,4.87,0,0,0,1.37-.19l35-10a5.09,5.09,0,0,0,2.17-1.25l69.82-69.81a22.68,22.68,0,0,0-16-38.75Zm-60,100.55-25.05,7.18,7.18-25.1L135,87.08,152.89,105Zm68.93-68.91L160,97.89,142,80l6.25-6.25a13,13,0,0,1,17.93,0,12.68,12.68,0,0,1,0,17.93Z"/></g></g></svg>