<svg xmlns="http://www.w3.org/2000/svg" viewBox="0 0 65 65"><defs><style>.cls-1{fill:#bebebe;}.cls-2{fill:#fff;}</style></defs><title>Asset 8</title><g id="Layer_2" data-name="Layer 2"><g id="Layer_1-2" data-name="Layer 1"><circle class="cls-1" cx="32.5" cy="32.5" r="32.5"/><g id="bwC33W"><path class="cls-2" d="M16.56,44.7a14.14,14.14,0,0,0,10.25-2.9,7.18,7.18,0,0,1-2-.35,6.93,6.93,0,0,1-4.35-4.14c-.14-.35-.12-.36.26-.31a6.44,6.44,0,0,0,2.68-.18,7,7,0,0,1-4-2.47,6.77,6.77,0,0,1-1.53-4.44,7.06,7.06,0,0,0,3,.84c0-.16-.17-.2-.25-.26a7,7,0,0,1-1.91-8.81c.16-.29.23-.11.33,0a19.91,19.91,0,0,0,6.85,5.25,20.37,20.37,0,0,0,7.1,1.8c.23,0,.22-.08.19-.25a7,7,0,0,1,8-8.22,6.93,6.93,0,0,1,3.75,1.91.43.43,0,0,0,.47.14,14.43,14.43,0,0,0,3.8-1.43l.36-.19a7.16,7.16,0,0,1-3,3.8,9.75,9.75,0,0,0,2-.37c.62-.16,1.22-.38,1.85-.59-.25.34-.49.69-.76,1a13.24,13.24,0,0,1-2.41,2.32.52.52,0,0,0-.23.5,20.23,20.23,0,0,1-6.36,15.27A18.28,18.28,0,0,1,31,47.49a20.27,20.27,0,0,1-10.69-.9,19.4,19.4,0,0,1-3.6-1.77Z"/></g></g></g></svg>