<svg xmlns="http://www.w3.org/2000/svg" viewBox="0 0 65 65"><defs><style>.cls-1{fill:#bebebe;}.cls-2{fill:#fff;stroke:#fff;stroke-miterlimit:10;}</style></defs><title>Asset 6</title><g id="Layer_2" data-name="Layer 2"><g id="Layer_1-2" data-name="Layer 1"><circle class="cls-1" cx="32.5" cy="32.5" r="32.5"/><g id="K8ZvCd"><path class="cls-2" d="M27,16.5H38a3.56,3.56,0,0,0,1.17.12,9.28,9.28,0,0,1,9.2,9.23c.21,3.31.11,6.62.11,9.93a33.62,33.62,0,0,1-.23,4.48A9,9,0,0,1,41.42,48a24.43,24.43,0,0,1-6.21.48,91.45,91.45,0,0,1-10.47-.24,9,9,0,0,1-7.88-7.35c-.2-1-.16-1.94-.35-2.89V27c.08-.74.15-1.48.24-2.21a9,9,0,0,1,7.35-7.93C25.06,16.66,26,16.69,27,16.5ZM32.49,46c2.18,0,4.37,0,6.55-.12a6.78,6.78,0,0,0,6.82-6.79q.31-6.59,0-13.17a6.72,6.72,0,0,0-6.76-6.77c-4.39-.22-8.78-.21-13.17,0a6.72,6.72,0,0,0-6.78,6.75,129.74,129.74,0,0,0,0,13.23,6.81,6.81,0,0,0,2.6,5.32,7.64,7.64,0,0,0,4.19,1.42C28.12,46,30.3,46,32.49,46Z"/><path class="cls-2" d="M40.43,32.57a7.94,7.94,0,1,1-7.87-8A8,8,0,0,1,40.43,32.57Zm-2.51,0a5.43,5.43,0,1,0-5.59,5.33A5.41,5.41,0,0,0,37.92,32.59Z"/><path class="cls-2" d="M42.76,24.1A1.88,1.88,0,0,1,40.91,26,1.92,1.92,0,0,1,39,24.09a1.86,1.86,0,0,1,1.92-1.86A1.84,1.84,0,0,1,42.76,24.1Z"/></g></g></g></svg>